<svg width="49" height="49" viewBox="0 0 49 49" fill="none" xmlns="http://www.w3.org/2000/svg">
<path d="M18.468 41.828C18.196 41.828 18.012 41.684 17.916 41.396C17.828 41.116 17.784 40.808 17.784 40.472L17.82 40.124C17.428 40.372 16.964 40.568 16.428 40.712C15.9 40.856 15.344 40.928 14.76 40.928C14.336 40.928 13.96 40.832 13.632 40.64C13.304 40.44 13.048 40.172 12.864 39.836C12.688 39.492 12.6 39.104 12.6 38.672C12.6 38.016 12.856 37.396 13.368 36.812C13.88 36.22 14.508 35.74 15.252 35.372C16.004 34.996 16.7 34.784 17.34 34.736C17.66 34.704 17.932 34.776 18.156 34.952C18.38 35.12 18.492 35.356 18.492 35.66C18.324 35.66 18.124 35.616 17.892 35.528C17.86 35.52 17.776 35.496 17.64 35.456C17.504 35.416 17.364 35.396 17.22 35.396C16.652 35.396 16.048 35.56 15.408 35.888C14.776 36.216 14.244 36.652 13.812 37.196C13.388 37.732 13.176 38.296 13.176 38.888C13.176 39.168 13.26 39.412 13.428 39.62C13.604 39.82 13.82 39.976 14.076 40.088C14.34 40.192 14.604 40.244 14.868 40.244C15.5 40.244 16.02 40.22 16.428 40.172C16.836 40.116 17.188 39.976 17.484 39.752C17.78 39.52 17.928 39.168 17.928 38.696C17.928 38.472 17.88 38.316 17.784 38.228H15.648C15.536 38.228 15.428 38.172 15.324 38.06C15.228 37.948 15.18 37.836 15.18 37.724C15.18 37.524 15.24 37.424 15.36 37.424C15.456 37.424 15.608 37.464 15.816 37.544C16.008 37.632 16.172 37.676 16.308 37.676C16.484 37.676 16.756 37.652 17.124 37.604C17.188 37.596 17.304 37.584 17.472 37.568C17.64 37.552 17.792 37.544 17.928 37.544C18.064 37.544 18.196 37.604 18.324 37.724C18.46 37.836 18.524 37.964 18.516 38.108L18.444 40.88C18.5 40.992 18.596 41.088 18.732 41.168C18.78 41.192 18.82 41.22 18.852 41.252C18.884 41.292 18.904 41.332 18.912 41.372C18.952 41.46 18.912 41.556 18.792 41.66C18.672 41.772 18.564 41.828 18.468 41.828ZM22.4874 41.012C22.0154 41.012 21.5874 40.908 21.2034 40.7C20.8274 40.484 20.5314 40.188 20.3154 39.812C20.1074 39.428 20.0034 38.992 20.0034 38.504C20.0034 37.704 20.2954 37.108 20.8794 36.716C21.4714 36.324 22.1954 36.128 23.0514 36.128C23.4434 36.128 23.8074 36.224 24.1434 36.416C24.4874 36.608 24.7634 36.884 24.9714 37.244C25.1794 37.604 25.2834 38.02 25.2834 38.492C25.2834 39.004 25.1514 39.452 24.8874 39.836C24.6234 40.212 24.2754 40.504 23.8434 40.712C23.4194 40.912 22.9674 41.012 22.4874 41.012ZM22.3554 40.328C23.0994 40.328 23.6634 40.16 24.0474 39.824C24.4314 39.488 24.6234 38.996 24.6234 38.348C24.6234 37.908 24.4714 37.528 24.1674 37.208C23.8714 36.888 23.4554 36.728 22.9194 36.728C22.5594 36.728 22.1954 36.796 21.8274 36.932C21.4594 37.068 21.1554 37.272 20.9154 37.544C20.6754 37.816 20.5554 38.144 20.5554 38.528C20.5554 38.848 20.6354 39.148 20.7954 39.428C20.9554 39.7 21.1714 39.92 21.4434 40.088C21.7234 40.248 22.0274 40.328 22.3554 40.328ZM26.5345 40.916C26.3585 40.044 26.2225 39.012 26.1265 37.82C26.0385 36.62 25.9945 35.46 25.9945 34.34C25.9945 33.78 26.0065 33.284 26.0305 32.852C26.0305 32.748 26.1105 32.696 26.2705 32.696C26.3985 32.696 26.4785 32.728 26.5105 32.792C26.5505 32.856 26.5705 32.956 26.5705 33.092C26.5705 34.388 26.5945 35.496 26.6425 36.416C26.6905 37.328 26.7545 38.312 26.8345 39.368C26.8825 40.048 26.9145 40.508 26.9305 40.748C26.9385 40.876 26.8705 40.94 26.7265 40.94C26.6785 40.94 26.6145 40.932 26.5345 40.916ZM29.9422 40.988C29.5662 40.988 29.2382 40.86 28.9582 40.604C28.6862 40.348 28.4782 40.016 28.3342 39.608C28.1982 39.2 28.1302 38.776 28.1302 38.336C28.1302 37.568 28.2902 36.92 28.6102 36.392C28.9382 35.864 29.4342 35.6 30.0982 35.6C30.4982 35.6 30.8462 35.672 31.1422 35.816C31.4462 35.952 31.8422 36.184 32.3302 36.512L32.6422 36.728C32.6022 36.464 32.5422 36.16 32.4622 35.816C32.3822 35.472 32.3302 35.236 32.3062 35.108C32.1702 34.484 32.0702 34.02 32.0062 33.716C31.9502 33.404 31.9222 33.128 31.9222 32.888C31.9222 32.464 32.0422 32.252 32.2822 32.252C32.3702 32.444 32.4742 32.856 32.5942 33.488C32.7142 34.112 32.8662 34.968 33.0502 36.056C33.2422 37.208 33.4102 38.148 33.5542 38.876C33.6982 39.604 33.8182 40.06 33.9142 40.244C33.9142 40.428 33.7782 40.52 33.5062 40.52C33.2982 40.52 33.1542 40.4 33.0742 40.16C33.0022 39.92 32.9582 39.5 32.9422 38.9H32.8462C32.5102 39.508 32.0742 40.008 31.5382 40.4C31.0022 40.792 30.4702 40.988 29.9422 40.988ZM30.0982 40.4C30.4262 40.4 30.7782 40.264 31.1542 39.992C31.5382 39.712 31.8622 39.376 32.1262 38.984C32.3902 38.584 32.5222 38.224 32.5222 37.904V37.544C31.6982 36.68 30.9382 36.248 30.2422 36.248C29.7542 36.248 29.3782 36.428 29.1142 36.788C28.8502 37.14 28.7182 37.604 28.7182 38.18L28.7302 38.432C28.7782 39.04 28.9142 39.52 29.1382 39.872C29.3622 40.224 29.6822 40.4 30.0982 40.4Z" fill="black"/>
<circle cx="24" cy="17" r="12" fill="#EFB51F"/>
<circle cx="24.5" cy="24.5" r="24" stroke="black" stroke-opacity="0.17"/>
</svg>
