<svg width="49" height="49" viewBox="0 0 49 49" fill="none" xmlns="http://www.w3.org/2000/svg">
<path d="M12.6 30.74L16.48 24.54L13 18.26L17.62 17.7L19.38 22.64L21.66 17.7L23.96 18.24L20.08 24.42L24.02 30.7L19.4 31.28L17.24 26.22L14.9 31.3L12.6 30.74ZM26.5772 18.4C28.4439 17.8 30.3305 17.5 32.2372 17.5C34.1439 17.5 35.6105 17.82 36.6372 18.46C36.8772 19.18 36.9972 19.8667 36.9972 20.52C36.9972 22.0533 36.3639 23.34 35.0972 24.38C33.8305 25.4067 32.1972 26.1467 30.1972 26.6L29.7172 31.08L27.7172 31.28L26.5772 18.4ZM33.1372 21.1C33.1372 20.0733 32.7172 19.3067 31.8772 18.8C31.6372 18.8 31.3439 18.8467 30.9972 18.94L30.3372 25.24C31.2039 24.76 31.8839 24.14 32.3772 23.38C32.8839 22.62 33.1372 21.86 33.1372 21.1Z" fill="black"/>
<circle cx="24.5" cy="24.5" r="24" stroke="black" stroke-opacity="0.17"/>
</svg>
