<svg width="49" height="49" viewBox="0 0 49 49" fill="none" xmlns="http://www.w3.org/2000/svg">
<circle cx="24.5" cy="24.5" r="24" stroke="black" stroke-opacity="0.17"/>
<path d="M16.75 10.9375C21.0319 10.9375 24.5 14.3378 24.5 18.5325C24.5 14.3378 27.9681 10.9375 32.25 10.9375C36.5319 10.9375 40 14.3378 40 18.5325C40 24.8546 33.7341 27.0846 25.2595 37.148C25.1662 37.2585 25.0499 37.3474 24.9187 37.4083C24.7875 37.4692 24.6446 37.5008 24.5 37.5008C24.3554 37.5008 24.2125 37.4692 24.0813 37.4083C23.9501 37.3474 23.8338 37.2585 23.7405 37.148C15.2659 27.0846 9 24.8546 9 18.5325C9 14.3378 12.4681 10.9375 16.75 10.9375Z" fill="#A80808"/>
</svg>
